PathFileType	3	(X/Y/Z)	RCH0000002 BBF 07.c3d
DataRate	CameraRate	NumFrames	NumMarkers	Units	OrigDataRate	OrigDataStartFrame	OrigNumFrames
100.0	100.0	15	23	mm	100.0	380	452
Frame#	Time	T2			T10			MAN			LASI			RASI			RPSI			LPAT			LKNE			LANK			LMED			LHEE			LTOE			RPAT			RKNE			RANK			RMED			RHEE			RTOE			LPSI			RTHI			LTHI			RTIB			LTIB			
		X1	Y1	Z1	X2	Y2	Z2	X3	Y3	Z3	X4	Y4	Z4	X5	Y5	Z5	X6	Y6	Z6	X7	Y7	Z7	X8	Y8	Z8	X9	Y9	Z9	X10	Y10	Z10	X11	Y11	Z11	X12	Y12	Z12	X13	Y13	Z13	X14	Y14	Z14	X15	Y15	Z15	X16	Y16	Z16	X17	Y17	Z17	X18	Y18	Z18	X19	Y19	Z19	X20	Y20	Z20	X21	Y21	Z21	X22	Y22	Z22	X23	Y23	Z23	

380	3.790	1246.66170	-67.04036	980.87721	1261.92300	-80.53711	795.64757	1372.44079	-29.80978	953.61302	1320.61653	21.43635	649.74264	1361.21105	-150.05167	643.17774	1248.04943	-123.39335	709.40858	1317.64019	-29.53587	383.68859	1269.33731	24.88558	343.16946	1219.03740	13.79400	71.91674	1225.88871	-53.91114	91.59607	1181.48892	-27.10357	104.13959	1270.15516	-19.33798	68.50228	1376.98924	-102.41201	358.29859	1326.57010	-159.26467	335.44515	1134.04221	-199.35317	151.26449	1124.62361	-131.47751	163.13735	1116.19048	-168.92283	203.54687	1153.47376	-161.02724	110.97064	1231.04475	-54.03377	711.51899	1350.59065	-227.36018	445.26507	1262.87771	97.49522	466.51050	1255.18337	-240.80198	263.98639	1239.88276	83.71449	226.43522	
381	3.800	1257.69876	-67.26429	983.18183	1271.51229	-79.95673	797.70038	1383.34918	-29.94910	955.36348	1328.08349	23.43606	651.44455	1372.60933	-147.02982	645.20657	1258.48285	-122.85253	710.64447	1321.03231	-27.44708	383.91135	1271.02371	26.07161	344.19333	1219.24517	13.31763	73.10226	1227.69962	-54.14129	93.02291	1182.68912	-28.02564	105.86113	1270.94895	-19.02560	69.06055	1398.93817	-99.45630	364.06544	1349.52315	-156.58842	339.21121	1161.95172	-197.49606	150.72860	1151.90352	-129.51657	162.17558	1142.17959	-167.05127	202.23891	1183.15312	-159.20777	111.65597	1240.26644	-53.97938	712.83734	1369.46442	-224.99048	449.61911	1265.89600	98.50707	467.71218	1280.20769	-238.44142	266.34232	1239.23938	84.15873	227.40186	
382	3.810	1268.76309	-67.20276	985.10983	1281.00892	-79.38278	799.40263	1394.37910	-30.10973	956.64781	1335.57798	25.23889	652.85051	1383.84807	-144.19524	646.89659	1268.78297	-122.44329	711.40993	1324.73454	-25.46183	383.96649	1273.14155	27.16516	345.09184	1219.62071	13.09542	74.19904	1229.53563	-54.13714	94.35972	1184.00450	-28.61248	107.52393	1271.81523	-18.57868	69.51820	1420.64400	-96.49866	369.98729	1372.38336	-153.86697	343.07361	1190.80985	-195.40537	149.51539	1180.07275	-127.32211	160.52563	1168.93157	-165.00908	200.14269	1213.81837	-157.08478	111.83652	1249.41935	-54.08262	713.69549	1388.17317	-222.62871	453.90159	1269.25405	99.38511	468.78399	1305.55578	-235.95988	268.39833	1239.13329	84.64814	228.33884	
383	3.820	1279.88305	-66.88082	986.62783	1290.47053	-78.86742	800.73428	1405.55312	-30.29865	957.44074	1343.15095	26.84701	653.96821	1394.95218	-141.57100	648.18342	1278.98317	-122.19474	711.68462	1328.67713	-23.54322	383.84153	1275.62225	28.22919	345.86340	1220.13413	13.15749	75.18732	1231.33913	-53.86945	95.59548	1185.38597	-28.82682	109.10259	1272.72029	-17.97453	69.87179	1442.02217	-93.49374	375.98120	1395.09484	-151.05456	346.96018	1220.54733	-193.07647	147.74330	1209.07828	-124.88737	158.27133	1196.41848	-162.77735	197.34637	1245.36097	-154.66675	111.60007	1258.54331	-54.36085	714.10958	1406.70928	-220.23549	458.02723	1272.95060	100.18326	469.73298	1331.18365	-233.32804	270.18198	1239.52626	85.24321	229.22300	
384	3.830	1291.08417	-66.34264	987.71744	1299.95274	-78.45325	801.68671	1416.88657	-30.52810	957.73706	1350.86022	28.26658	654.80976	1405.95032	-139.17479	649.02761	1289.12048	-122.11656	711.46519	1332.79457	-21.67260	383.53309	1278.39880	29.30666	346.51356	1220.74925	13.49982	76.06025	1233.06319	-53.34132	96.72583	1186.78900	-28.67416	110.58316	1273.63336	-17.21133	70.12485	1462.97042	-90.39547	381.96415	1417.58084	-148.10785	350.80441	1251.08513	-190.50653	145.52960	1238.84409	-122.21543	155.50273	1224.59481	-160.35134	193.94152	1277.66089	-151.95788	111.03505	1267.68459	-54.81130	714.10549	1425.04900	-217.77393	461.92261	1276.98923	100.94520	470.56556	1357.03410	-230.52048	271.72485	1240.35835	85.97606	230.03933	
385	3.840	1302.38800	-65.64716	988.37318	1309.50885	-78.17106	802.26014	1428.38762	-30.81371	957.55000	1358.77002	29.50800	655.38946	1416.87693	-137.01758	649.41287	1299.23700	-122.20052	710.76324	1337.03941	-19.84649	383.04526	1281.41887	30.42021	347.05276	1221.42883	14.08967	76.82431	1234.67574	-52.58325	97.75402	1188.17920	-28.19558	111.96546	1274.52927	-16.30557	70.28694	1483.37259	-87.16011	387.84501	1439.74440	-144.98931	354.53886	1282.32701	-187.69512	142.97694	1269.26092	-119.32084	152.30589	1253.39027	-157.74383	190.01374	1310.57656	-148.95699	110.21715	1276.89579	-55.41313	713.71537	1443.15392	-215.21169	465.52070	1281.38259	101.70327	471.28577	1383.03699	-227.51642	273.04842	1241.56163	86.85150	230.78196	
386	3.850	1313.81130	-64.86306	988.60006	1319.18972	-78.03858	802.46089	1440.05785	-31.17237	956.90863	1366.94927	30.58623	655.72161	1427.77367	-135.10228	649.34262	1309.38073	-122.42330	709.60274	1341.39292	-18.07173	382.38687	1284.65537	31.57464	347.49319	1222.14013	14.87388	77.49836	1236.16271	-51.64539	98.69082	1189.53675	-27.45706	113.26359	1275.39063	-15.28779	70.37225	1503.10543	-83.74854	393.51739	1461.47252	-141.67000	358.08843	1314.14893	-184.64595	140.16416	1300.17665	-116.23063	148.75480	1282.70121	-154.98637	185.63668	1343.93382	-145.65953	109.19953	1286.23503	-56.13105	712.97412	1460.97618	-212.52190	468.75553	1286.15483	102.47897	471.89364	1409.10871	-224.30022	274.15347	1243.07399	87.85143	231.45371	
387	3.860	1325.36544	-64.06351	988.41098	1329.04380	-78.06029	802.29897	1451.89311	-31.62017	955.85470	1375.46874	31.52115	655.81861	1438.68971	-133.42243	648.83578	1319.60565	-122.75021	708.01735	1345.87147	-16.36042	381.56803	1288.11362	32.76102	347.84491	1222.86010	15.78857	78.11162	1237.52958	-50.58852	99.55374	1190.85954	-26.53753	114.50495	1276.20948	-14.19745	70.39777	1522.04809	-80.12783	398.85527	1482.64349	-138.13180	361.36528	1346.38671	-181.36975	137.14197	1331.38846	-112.98448	144.90630	1312.38140	-152.12815	180.86973	1377.51538	-142.06268	108.00735	1295.76420	-56.91961	711.91614	1478.46611	-209.68319	471.55840	1291.34244	103.28441	472.38364	1435.15021	-220.86214	275.01495	1244.85150	88.94157	232.06437	
388	3.870	1337.05623	-63.32094	987.82441	1339.11697	-78.22786	801.78614	1463.88450	-32.17051	954.43932	1384.39733	32.33745	655.68933	1449.68092	-131.96153	647.92249	1329.97059	-123.13922	706.04802	1350.52853	-14.72532	380.59641	1291.83465	33.96150	348.11191	1223.57972	16.76850	78.70096	1238.80123	-49.47525	100.36539	1192.16499	-25.51729	115.72782	1276.98834	-13.07794	70.38130	1540.09292	-76.27275	403.71287	1503.13610	-134.36925	364.26704	1378.82367	-177.88784	133.93334	1362.63793	-109.63408	140.79888	1342.23348	-149.23278	175.75938	1411.05259	-138.17249	106.63756	1305.54655	-57.72783	710.57287	1495.58067	-206.67937	473.85685	1296.99356	104.12434	472.74336	1461.04368	-217.19943	275.58265	1246.87827	90.07901	232.62760	
389	3.880	1348.88400	-62.70225	986.86252	1349.45209	-78.52130	800.93472	1476.01954	-32.83243	952.71956	1393.79784	33.06404	655.33795	1460.80737	-130.69330	646.64035	1340.53689	-123.54481	703.74116	1355.45249	-13.17655	379.47373	1295.89462	35.15396	348.28829	1224.30741	17.75501	79.30787	1240.02019	-48.36264	101.15177	1193.49053	-24.46821	116.97821	1277.74061	-11.97220	70.33980	1557.15660	-72.16772	407.92973	1522.83966	-130.39087	366.67910	1411.18081	-174.23605	130.53822	1393.61038	-106.24197	136.45528	1372.00270	-146.37359	170.34381	1444.22141	-134.01183	105.06358	1315.64333	-58.50336	708.97141	1512.29063	-203.49955	475.57681	1303.16594	104.99819	472.95253	1486.64851	-213.31834	275.78732	1249.17301	91.21951	233.15703	
390	3.890	1360.84394	-62.26444	985.54996	1360.08821	-78.91033	799.75744	1488.28322	-33.60934	950.75549	1403.72274	33.73268	654.76340	1472.12972	-129.58321	645.03186	1351.36473	-123.92144	701.14773	1360.76107	-11.71994	378.19296	1300.40076	36.31576	348.35540	1225.07137	18.70173	79.97548	1241.24372	-47.29688	101.94037	1194.89334	-23.44641	118.30618	1278.49076	-10.91941	70.28809	1573.18977	-67.80985	411.34126	1541.66310	-126.22044	368.48157	1443.11212	-170.46790	126.94169	1423.93937	-102.87951	131.88894	1401.37497	-143.62784	164.65991	1476.64430	-129.62761	103.24449	1326.10996	-59.19602	707.13419	1528.58484	-200.13926	476.64797	1309.92379	105.90161	472.98250	1511.79763	-209.23674	275.55102	1251.79240	92.32352	233.66196	
391	3.900	1372.92672	-62.05100	983.91353	1371.05917	-79.35612	798.26812	1500.65898	-34.49793	948.60776	1414.21024	34.37590	653.95953	1483.70434	-128.59124	643.14329	1362.50849	-124.22615	698.32324	1366.59331	-10.35704	376.73671	1305.48449	37.42618	348.28016	1225.92111	19.57785	80.74583	1242.54048	-46.31026	102.75876	1196.44929	-22.48790	119.76226	1279.27438	-9.95283	70.23836	1588.18372	-63.21306	413.79375	1559.54173	-121.89803	369.56044	1474.20772	-166.65637	123.12465	1453.21759	-99.62440	127.11326	1429.98138	-141.07086	158.75175	1507.89945	-125.09549	101.13735	1336.99174	-59.76032	705.08014	1544.47046	-196.60301	477.01142	1317.33403	106.82735	472.79653	1536.29609	-204.98727	274.79976	1254.83083	93.36047	234.14325	
392	3.910	1385.11924	-62.08894	981.98258	1382.39184	-79.81309	796.48338	1513.12944	-35.48748	946.33586	1425.28125	35.02431	652.91620	1495.57796	-127.67602	641.02507	1374.01151	-124.42048	695.32849	1373.10017	-9.08667	375.07726	1311.29250	38.46757	348.01525	1226.92807	20.36912	81.65763	1243.98759	-45.42040	103.63368	1198.25158	-21.60688	121.39412	1280.13849	-9.09854	70.20044	1602.17279	-58.41295	415.16231	1576.44065	-117.48069	369.82142	1504.00693	-162.89330	119.07571	1481.01443	-96.55730	122.15229	1457.41082	-138.77060	152.67903	1537.53818	-120.52087	98.71083	1348.31964	-60.15695	702.82671	1559.96861	-192.90838	476.62847	1325.46244	107.76540	472.35109	1559.92328	-200.62048	273.47673	1258.41714	94.31107	234.59028	
393	3.920	1397.40544	-62.38682	979.79028	1394.10392	-80.23090	794.42506	1525.67691	-36.55947	943.99709	1436.93747	35.70340	651.62127	1507.78236	-126.79964	638.73325	1385.90098	-124.47163	692.23089	1380.43449	-7.90750	373.17849	1317.97691	39.42526	347.50150	1228.18538	21.07690	82.74476	1245.66860	-44.63118	104.59064	1200.40904	-20.79665	123.24387	1281.14208	-8.37498	70.18303	1615.23153	-53.47162	415.36918	1592.35405	-113.04274	369.20477	1532.02220	-159.28570	114.80266	1506.90027	-93.75777	117.05095	1483.23163	-136.78311	146.52417	1565.11011	-116.03493	95.95791	1360.10660	-60.35347	700.39295	1575.10638	-189.09099	475.48906	1334.37034	108.70249	471.59842	1582.44032	-196.20721	271.55388	1262.70813	95.16743	234.97962	
394	3.930	1409.76703	-62.93358	977.37537	1406.20177	-80.55667	792.12300	1538.28366	-37.68742	941.64639	1449.16085	36.43035	650.06353	1520.32983	-125.93293	636.33164	1398.18355	-124.35306	689.10581	1388.74114	-6.82116	371.00008	1325.68502	40.28661	346.67278	1229.80659	21.71570	84.03554	1247.67285	-43.93489	105.65400	1203.04399	-20.03276	125.34610	1282.35716	-7.79269	70.19570	1627.46639	-48.48112	414.39952	1607.30055	-108.67519	367.69851	1557.77340	-155.94884	110.34176	1530.47633	-91.29943	111.88248	1507.02171	-135.14957	140.39609	1590.19484	-111.78567	92.90538	1372.34492	-60.32445	697.80293	1589.90667	-185.20939	473.61862	1344.11191	109.62133	470.49056	1603.60295	-191.83939	269.04049	1267.87926	95.93157	235.27609	
